<?xml version="1.0"?><svg fill="#000000" xmlns="http://www.w3.org/2000/svg" viewBox="0 0 64 64" width="64px" height="64px">    <path d="M 32.017578 3.3847656 C 31.525328 3.3806406 31.031578 3.5584688 30.642578 3.9179688 L 4.6152344 25.984375 C 4.2242344 26.359375 4 26.885734 4 27.427734 L 4 30.65625 C 4 31.45825 4.4778438 32.180094 5.2148438 32.496094 C 5.9548437 32.810094 6.8048906 32.655578 7.3378906 32.142578 L 8 31.583984 L 8 56 C 8 57.103 8.897 58 10 58 L 24 58 C 25.103 58 26 57.103 26 56 L 26 40 L 38 40 L 38 56 C 38 57.103 38.897 58 40 58 L 44.585938 58 C 45.119938 58 45.622 57.792063 46 57.414062 L 55.414062 48 C 55.792062 47.622 56 47.119937 56 46.585938 L 56 32.552734 L 56.615234 33.095703 C 56.996234 33.460703 57.494 33.654297 58 33.654297 C 58.264 33.654297 58.530156 33.602141 58.785156 33.494141 C 59.523156 33.179141 60.001953 32.457297 60.001953 31.654297 L 60.001953 28.425781 C 60.001953 27.884781 59.775469 27.357078 59.355469 26.955078 L 33.384766 3.9414062 C 33.000766 3.5744063 32.509828 3.3888906 32.017578 3.3847656 z M 32.029297 5.4121094 L 58 28.425781 L 57.970703 31.626953 L 33.308594 9.8222656 C 32.933594 9.4902656 32.459375 9.3242188 31.984375 9.3242188 C 31.524375 9.3242188 31.063359 9.4809688 30.693359 9.7929688 L 6 30.65625 L 5.9550781 27.46875 L 31.955078 5.4257812 L 32.007812 5.4335938 L 32.029297 5.4121094 z M 31.984375 11.320312 L 54.037109 30.816406 C 54.025176 30.878138 54 30.9348 54 31 L 54 46 L 46 46 C 44.897 46 44 46.897 44 48 L 44 56 L 40 56 L 40 40 C 40 38.897 39.103 38 38 38 L 26 38 C 24.897 38 24 38.897 24 40 L 24 56 L 10 56 L 10 30 C 10 29.967467 9.9854637 29.939943 9.9824219 29.908203 L 31.984375 11.320312 z M 32 21 C 28.691 21 26 23.691 26 27 C 26 30.309 28.691 33 32 33 C 35.309 33 38 30.309 38 27 C 38 23.691 35.309 21 32 21 z M 32 23 C 34.206 23 36 24.794 36 27 C 36 29.206 34.206 31 32 31 C 29.794 31 28 29.206 28 27 C 28 24.794 29.794 23 32 23 z M 46 48 L 52.585938 48 L 46 54.585938 L 46 48 z M 12 50 C 11.448 50 11 50.448 11 51 L 11 53 C 11 53.552 11.448 54 12 54 C 12.552 54 13 53.552 13 53 L 13 51 C 13 50.448 12.552 50 12 50 z M 17 50 C 16.448 50 16 50.448 16 51 L 16 53 C 16 53.552 16.448 54 17 54 C 17.552 54 18 53.552 18 53 L 18 51 C 18 50.448 17.552 50 17 50 z M 22 50 C 21.448 50 21 50.448 21 51 L 21 53 C 21 53.552 21.448 54 22 54 C 22.552 54 23 53.552 23 53 L 23 51 C 23 50.448 22.552 50 22 50 z"/></svg>